<svg width="31" height="41" viewBox="0 0 31 41" fill="none" xmlns="http://www.w3.org/2000/svg">
  <path
    d="M19.6797 20.707C19.6797 20.7773 19.5742 22.8516 21.8594 23.9414C21.4375 25.2422 19.9609 28.125 18.2383 28.125C17.2539 28.125 16.6914 27.4922 15.5664 27.4922C14.4062 27.4922 13.7734 28.125 12.8945 28.125C11.207 28.1953 9.58984 25.0312 9.13281 23.7305C8.78125 22.7461 8.64062 21.7969 8.64062 20.8828C8.64062 17.7539 10.7148 16.2422 12.6836 16.207C13.6328 16.207 14.8281 16.875 15.3555 16.875C15.8477 16.875 17.2188 16.0664 18.4844 16.1719C19.7852 16.2773 20.7695 16.7695 21.4375 17.7188C20.2773 18.457 19.6797 19.4062 19.6797 20.707ZM17.7109 14.9414C17.0078 15.75 16.1641 16.207 15.25 16.1367C15.1797 15.1875 15.5312 14.3086 16.1641 13.6055C16.7266 12.9727 17.7109 12.4453 18.5547 12.375C18.5547 12.7617 18.6602 13.8164 17.7109 14.9414Z"
    fill="black" />
</svg>
