<svg width="35" height="41" viewBox="0 0 35 41" fill="none" xmlns="http://www.w3.org/2000/svg">
  <path
    d="M24.6367 16.5938C24.6367 16.7695 24.6367 16.9102 24.6367 17.0859C24.6367 21.9727 20.9453 27.5625 14.1602 27.5625C12.0508 27.5625 10.1172 26.9648 8.5 25.9102C8.78125 25.9453 9.0625 25.9805 9.37891 25.9805C11.1016 25.9805 12.6836 25.3828 13.9492 24.3984C12.332 24.3633 10.9609 23.3086 10.5039 21.832C10.75 21.8672 10.9609 21.9023 11.207 21.9023C11.5234 21.9023 11.875 21.832 12.1562 21.7617C10.4688 21.4102 9.20312 19.9336 9.20312 18.1406V18.1055C9.69531 18.3867 10.293 18.5273 10.8906 18.5625C9.87109 17.8945 9.23828 16.7695 9.23828 15.5039C9.23828 14.8008 9.41406 14.168 9.73047 13.6406C11.5586 15.8555 14.3008 17.332 17.3594 17.5078C17.2891 17.2266 17.2539 16.9453 17.2539 16.6641C17.2539 14.625 18.9062 12.9727 20.9453 12.9727C22 12.9727 22.9492 13.3945 23.6523 14.1328C24.4609 13.957 25.2695 13.6406 25.9727 13.2188C25.6914 14.0977 25.1289 14.8008 24.3555 15.2578C25.0938 15.1875 25.832 14.9766 26.4648 14.6953C25.9727 15.4336 25.3398 16.0664 24.6367 16.5938Z"
    fill="black" />
</svg>
