<svg width="22" height="17" viewBox="0 0 22 17" fill="none" xmlns="http://www.w3.org/2000/svg">
  <path
    d="M5.6875 3.40625C7.09375 2.34375 8.84375 1.5 11 1.5C13.5 1.5 15.5312 2.65625 17 4.03125C18.4688 5.375 19.4375 7 19.9062 8.125C20 8.375 20 8.65625 19.9062 8.90625C19.5 9.90625 18.6562 11.3438 17.4062 12.5938L20.6875 15.1875C21.0312 15.4375 21.0938 15.9062 20.8125 16.2188C20.5625 16.5625 20.0938 16.625 19.7812 16.3438L1.28125 1.84375C0.9375 1.59375 0.875 1.125 1.15625 0.8125C1.40625 0.46875 1.875 0.40625 2.1875 0.6875L5.6875 3.40625ZM6.90625 4.375L8.34375 5.5C9.0625 4.875 9.96875 4.5 11 4.5C13.1875 4.5 15 6.3125 15 8.5C15 9.1875 14.8125 9.8125 14.5312 10.3438L16.2188 11.6562C17.2812 10.5938 18.0312 9.375 18.4375 8.5C18 7.5625 17.1875 6.25 15.9688 5.125C14.6875 3.9375 13.0312 3 11 3C9.40625 3 8.03125 3.5625 6.90625 4.375ZM13.3125 9.40625C13.4375 9.125 13.5 8.8125 13.5 8.5C13.5 7.125 12.375 6 11 6C10.9688 6 10.9375 6 10.9062 6C10.9688 6.1875 11 6.34375 11 6.5C11 6.84375 10.9062 7.125 10.7812 7.40625L13.3125 9.40625ZM13.625 13.4688L14.9375 14.5C13.7812 15.125 12.4688 15.5 11 15.5C8.46875 15.5 6.4375 14.375 4.96875 13C3.5 11.625 2.53125 10 2.0625 8.90625C1.96875 8.65625 1.96875 8.375 2.0625 8.125C2.375 7.40625 2.875 6.5 3.59375 5.5625L4.75 6.5C4.1875 7.21875 3.78125 7.9375 3.53125 8.5C3.96875 9.4375 4.78125 10.7812 6 11.9062C7.28125 13.0938 8.9375 14 11 14C11.9375 14 12.8125 13.8125 13.625 13.4688ZM7 8.5C7 8.4375 7 8.34375 7 8.25L8.75 9.625C9.0625 10.2812 9.6875 10.7812 10.4375 10.9375L12.1875 12.3438C11.8125 12.4375 11.4062 12.5 10.9688 12.5C8.78125 12.5 6.96875 10.7188 6.96875 8.5H7Z"
    fill="#585858" />
</svg>
